FDZ_font.sfdir
StartChar: zero
Encoding: 48 48 26
Width: 590
Flags: HW
LayerCount: 2
Fore
SplineSet
507 580 m 1
 507 145 l 1
 434 145 l 1
 434 73 l 1
 362 73 l 1
 362 0 l 1
 144 0 l 1
 144 73 l 1
 362 73 l 1
 362 145 l 1
 434 145 l 1
 434 580 l 1
 507 580 l 1
362 653 m 1
 362 580 l 1
 217 580 l 1
 217 363 l 1
 289 363 l 1
 289 290 l 1
 217 290 l 1
 217 218 l 1
 144 218 l 1
 144 580 l 1
 217 580 l 1
 217 653 l 1
 362 653 l 1
144 73 m 1
 72 73 l 1
 72 145 l 1
 144 145 l 1
 144 73 l 1
EndSplineSet
EndChar
StartChar: one
Encoding: 49 49 27
Width: 458
Flags: HW
LayerCount: 2
Fore
SplineSet
147 580 m 1
 220 580 l 1
 220 508 l 1
 147 508 l 1
 147 580 l 1
292 73 m 1
 292 725 l 1
 365 725 l 1
 365 0 l 1
 220 0 l 1
 220 73 l 1
 292 73 l 1
147 508 m 1
 147 435 l 1
 75 435 l 1
 75 508 l 1
 147 508 l 1
EndSplineSet
EndChar
StartChar: two
Encoding: 50 50 28
Width: 601
Flags: HW
LayerCount: 2
Fore
SplineSet
367 508 m 1
 440 508 l 1
 440 653 l 1
 512 653 l 1
 512 435 l 1
 367 435 l 1
 367 363 l 1
 295 363 l 1
 295 435 l 1
 367 435 l 1
 367 508 l 1
149 218 m 1
 222 218 l 1
 222 363 l 1
 295 363 l 1
 295 145 l 1
 149 145 l 1
 149 218 l 1
77 73 m 1
 440 73 l 1
 440 145 l 1
 512 145 l 1
 512 0 l 1
 77 0 l 1
 77 73 l 1
149 653 m 1
 367 653 l 1
 367 580 l 1
 222 580 l 1
 222 435 l 1
 77 435 l 1
 77 508 l 1
 149 508 l 1
 149 653 l 1
EndSplineSet
EndChar
StartChar: three
Encoding: 51 51 29
Width: 588
Flags: HW
LayerCount: 2
Fore
SplineSet
376 653 m 5
 449 653 l 5
 449 725 l 5
 521 725 l 5
 521 580 l 5
 376 580 l 5
 376 653 l 5
231 580 m 5
 86 580 l 5
 86 653 l 5
 231 653 l 5
 231 580 l 5
304 435 m 5
 231 435 l 5
 231 508 l 5
 304 508 l 5
 304 580 l 5
 376 580 l 5
 376 508 l 5
 304 508 l 5
 304 435 l 5
376 218 m 5
 304 218 l 5
 304 290 l 5
 159 290 l 5
 159 363 l 5
 304 363 l 5
 304 290 l 5
 376 290 l 5
 376 218 l 5
376 0 m 5
 159 0 l 5
 159 73 l 5
 376 73 l 5
 376 145 l 5
 449 145 l 5
 449 290 l 5
 521 290 l 5
 521 145 l 5
 449 145 l 5
 449 73 l 5
 376 73 l 5
 376 0 l 5
159 73 m 5
 86 73 l 5
 86 145 l 5
 159 145 l 5
 159 73 l 5
EndSplineSet
EndChar
StartChar: four
Encoding: 52 52 30
Width: 614
Flags: HW
LayerCount: 2
Fore
SplineSet
376 73 m 5
 448 73 l 5
 448 725 l 5
 521 725 l 5
 521 0 l 5
 376 0 l 5
 376 73 l 5
231 725 m 5
 231 363 l 5
 158 363 l 5
 158 725 l 5
 231 725 l 5
376 290 m 5
 376 218 l 5
 86 218 l 5
 86 290 l 5
 376 290 l 5
EndSplineSet
EndChar
StartChar: five
Encoding: 53 53 31
Width: 591
Flags: HW
LayerCount: 2
Fore
SplineSet
523 290 m 5
 523 145 l 5
 451 145 l 5
 451 290 l 5
 523 290 l 5
451 725 m 5
 523 725 l 5
 523 580 l 5
 233 580 l 5
 233 435 l 5
 160 435 l 5
 160 653 l 5
 451 653 l 5
 451 725 l 5
378 363 m 5
 378 290 l 5
 88 290 l 5
 88 363 l 5
 378 363 l 5
451 145 m 5
 451 73 l 5
 378 73 l 5
 378 145 l 5
 451 145 l 5
378 73 m 5
 378 0 l 5
 160 0 l 5
 160 73 l 5
 378 73 l 5
160 73 m 5
 88 73 l 5
 88 145 l 5
 160 145 l 5
 160 73 l 5
EndSplineSet
EndChar
StartChar: six
Encoding: 54 54 32
Width: 568
Flags: HW
LayerCount: 2
Fore
SplineSet
216 653 m 5
 361 653 l 5
 361 725 l 5
 434 725 l 5
 434 580 l 5
 216 580 l 5
 216 653 l 5
506 290 m 5
 506 145 l 5
 434 145 l 5
 434 290 l 5
 506 290 l 5
144 218 m 5
 144 363 l 5
 361 363 l 5
 361 290 l 5
 216 290 l 5
 216 218 l 5
 144 218 l 5
434 145 m 5
 434 73 l 5
 361 73 l 5
 361 145 l 5
 434 145 l 5
361 73 m 5
 361 0 l 5
 144 0 l 5
 144 73 l 5
 361 73 l 5
144 73 m 5
 71 73 l 5
 71 145 l 5
 144 145 l 5
 144 73 l 5
216 580 m 5
 216 435 l 5
 144 435 l 5
 144 580 l 5
 216 580 l 5
EndSplineSet
EndChar
StartChar: seven
Encoding: 55 55 33
Width: 605
Flags: HW
LayerCount: 2
Fore
SplineSet
149 653 m 5
 367 653 l 5
 367 580 l 5
 222 580 l 5
 222 435 l 5
 77 435 l 5
 77 508 l 5
 149 508 l 5
 149 653 l 5
367 73 m 5
 439 73 l 5
 439 725 l 5
 512 725 l 5
 512 0 l 5
 367 0 l 5
 367 73 l 5
EndSplineSet
EndChar
StartChar: eight
Encoding: 56 56 34
Width: 589
Flags: HW
LayerCount: 2
Fore
SplineSet
362 580 m 5
 217 580 l 5
 217 435 l 5
 145 435 l 5
 145 653 l 5
 362 653 l 5
 362 580 l 5
362 290 m 5
 217 290 l 5
 217 218 l 5
 145 218 l 5
 145 363 l 5
 362 363 l 5
 362 290 l 5
507 580 m 5
 507 363 l 5
 435 363 l 5
 435 580 l 5
 507 580 l 5
507 290 m 5
 507 145 l 5
 435 145 l 5
 435 73 l 5
 362 73 l 5
 362 145 l 5
 435 145 l 5
 435 290 l 5
 507 290 l 5
362 73 m 5
 362 0 l 5
 145 0 l 5
 145 73 l 5
 362 73 l 5
145 73 m 5
 72 73 l 5
 72 145 l 5
 145 145 l 5
 145 73 l 5
EndSplineSet
EndChar
StartChar: nine
Encoding: 57 57 35
Width: 542
Flags: HW
LayerCount: 2
Fore
SplineSet
314 580 m 5
 169 580 l 5
 169 435 l 5
 96 435 l 5
 96 653 l 5
 314 653 l 5
 314 580 l 5
459 580 m 5
 459 145 l 5
 386 145 l 5
 386 73 l 5
 314 73 l 5
 314 145 l 5
 386 145 l 5
 386 580 l 5
 459 580 l 5
314 363 m 5
 314 290 l 5
 96 290 l 5
 96 363 l 5
 314 363 l 5
314 73 m 5
 314 0 l 5
 96 0 l 5
 96 73 l 5
 314 73 l 5
EndSplineSet
EndChar
StartChar: A
Encoding: 65 65 0
Width: 592
Flags: HW
LayerCount: 2
Fore
SplineSet
359 508 m 1
 214 508 l 1
 214 363 l 1
 141 363 l 1
 141 580 l 1
 214 580 l 1
 214 653 l 1
 286 653 l 1
 286 580 l 1
 359 580 l 1
 359 508 l 1
141 290 m 1
 359 290 l 1
 359 218 l 1
 214 218 l 1
 214 0 l 1
 69 0 l 1
 69 73 l 1
 141 73 l 1
 141 290 l 1
431 73 m 1
 431 508 l 1
 504 508 l 1
 504 0 l 1
 359 0 l 1
 359 73 l 1
 431 73 l 1
EndSplineSet
EndChar
StartChar: B
Encoding: 66 66 1
Width: 562
Flags: HW
LayerCount: 2
Fore
SplineSet
214 145 m 1
 142 145 l 1
 142 363 l 1
 359 363 l 1
 359 290 l 1
 214 290 l 1
 214 145 l 1
505 363 m 1
 505 145 l 1
 432 145 l 1
 432 363 l 1
 359 363 l 1
 359 435 l 1
 432 435 l 1
 432 363 l 1
 505 363 l 1
505 580 m 1
 505 435 l 1
 432 435 l 1
 432 580 l 1
 505 580 l 1
142 653 m 1
 359 653 l 1
 359 580 l 1
 214 580 l 1
 214 435 l 1
 142 435 l 1
 142 653 l 1
359 73 m 1
 359 0 l 1
 69 0 l 1
 69 73 l 1
 359 73 l 1
359 73 m 1
 359 145 l 1
 432 145 l 1
 432 73 l 1
 359 73 l 1
EndSplineSet
EndChar
StartChar: C
Encoding: 67 67 2
Width: 515
Flags: HW
LayerCount: 2
Fore
SplineSet
387 580 m 1
 387 653 l 1
 460 653 l 1
 460 508 l 1
 315 508 l 1
 315 580 l 1
 387 580 l 1
460 218 m 1
 460 145 l 1
 387 145 l 1
 387 218 l 1
 460 218 l 1
315 73 m 1
 315 0 l 1
 170 0 l 1
 170 73 l 1
 315 73 l 1
315 73 m 1
 315 145 l 1
 387 145 l 1
 387 73 l 1
 315 73 l 1
170 580 m 1
 170 218 l 1
 97 218 l 1
 97 580 l 1
 170 580 l 1
170 580 m 1
 170 653 l 1
 315 653 l 1
 315 580 l 1
 170 580 l 1
170 73 m 1
 97 73 l 1
 97 145 l 1
 170 145 l 1
 170 73 l 1
EndSplineSet
EndChar
StartChar: D
Encoding: 68 68 3
Width: 562
Flags: HW
LayerCount: 2
Fore
SplineSet
141 653 m 1
 359 653 l 1
 359 580 l 1
 214 580 l 1
 214 145 l 1
 141 145 l 1
 141 653 l 1
359 73 m 1
 359 0 l 1
 69 0 l 1
 69 73 l 1
 359 73 l 1
359 73 m 1
 359 145 l 1
 432 145 l 1
 432 580 l 1
 504 580 l 1
 504 145 l 1
 432 145 l 1
 432 73 l 1
 359 73 l 1
EndSplineSet
EndChar
StartChar: E
Encoding: 69 69 4
Width: 594
Flags: HW
LayerCount: 2
Fore
SplineSet
431 73 m 5
 431 145 l 5
 504 145 l 5
 504 0 l 5
 69 0 l 5
 69 73 l 5
 431 73 l 5
431 435 m 5
 431 290 l 5
 214 290 l 5
 214 145 l 5
 141 145 l 5
 141 363 l 5
 359 363 l 5
 359 435 l 5
 431 435 l 5
504 725 m 5
 504 580 l 5
 214 580 l 5
 214 435 l 5
 141 435 l 5
 141 653 l 5
 431 653 l 5
 431 725 l 5
 504 725 l 5
EndSplineSet
EndChar
StartChar: F
Encoding: 70 70 5
Width: 550
Flags: HW
LayerCount: 2
Fore
SplineSet
214 290 m 5
 214 0 l 5
 69 0 l 5
 69 73 l 5
 142 73 l 5
 142 363 l 5
 359 363 l 5
 359 435 l 5
 432 435 l 5
 432 290 l 5
 214 290 l 5
504 725 m 5
 504 580 l 5
 214 580 l 5
 214 435 l 5
 142 435 l 5
 142 653 l 5
 432 653 l 5
 432 725 l 5
 504 725 l 5
EndSplineSet
EndChar
StartChar: G
Encoding: 71 71 6
Width: 518
Flags: HW
LayerCount: 2
Fore
SplineSet
388 580 m 1
 388 653 l 1
 460 653 l 1
 460 508 l 1
 315 508 l 1
 315 580 l 1
 388 580 l 1
460 363 m 1
 460 145 l 1
 388 145 l 1
 388 73 l 1
 315 73 l 1
 315 0 l 1
 170 0 l 1
 170 73 l 1
 315 73 l 1
 315 145 l 1
 388 145 l 1
 388 363 l 1
 460 363 l 1
315 290 m 1
 315 218 l 1
 243 218 l 1
 243 290 l 1
 315 290 l 1
170 73 m 1
 97 73 l 1
 97 145 l 1
 170 145 l 1
 170 73 l 1
170 580 m 1
 170 218 l 1
 97 218 l 1
 97 580 l 1
 170 580 l 1
170 580 m 1
 170 653 l 1
 315 653 l 1
 315 580 l 1
 170 580 l 1
EndSplineSet
EndChar
StartChar: H
Encoding: 72 72 7
Width: 594
Flags: HW
LayerCount: 2
Fore
SplineSet
431 73 m 5
 431 725 l 5
 504 725 l 5
 504 0 l 5
 359 0 l 5
 359 73 l 5
 431 73 l 5
214 725 m 5
 214 435 l 5
 141 435 l 5
 141 725 l 5
 214 725 l 5
359 363 m 5
 359 290 l 5
 214 290 l 5
 214 0 l 5
 69 0 l 5
 69 73 l 5
 141 73 l 5
 141 363 l 5
 359 363 l 5
EndSplineSet
EndChar
StartChar: I
Encoding: 73 73 8
Width: 463
Flags: HW
LayerCount: 2
Fore
SplineSet
85 653 m 1
 157 653 l 1
 157 580 l 1
 85 580 l 1
 85 653 l 1
230 145 m 1
 230 653 l 1
 302 653 l 1
 302 725 l 1
 375 725 l 1
 375 580 l 1
 302 580 l 1
 302 145 l 1
 230 145 l 1
375 0 m 1
 85 0 l 1
 85 73 l 1
 302 73 l 1
 302 145 l 1
 375 145 l 1
 375 0 l 1
EndSplineSet
EndChar
StartChar: J
Encoding: 74 74 9
Width: 511
Flags: HW
LayerCount: 2
Fore
SplineSet
378 725 m 1
 451 725 l 1
 451 145 l 1
 378 145 l 1
 378 725 l 1
88 218 m 1
 161 218 l 1
 161 145 l 1
 88 145 l 1
 88 218 l 1
378 145 m 1
 378 73 l 1
 306 73 l 1
 306 145 l 1
 378 145 l 1
306 73 m 1
 306 0 l 1
 88 0 l 1
 88 73 l 1
 306 73 l 1
EndSplineSet
EndChar
StartChar: K
Encoding: 75 75 10
Width: 593
Flags: HW
LayerCount: 2
Fore
SplineSet
432 725 m 1
 504 725 l 1
 504 653 l 1
 432 653 l 1
 432 725 l 1
359 73 m 1
 432 73 l 1
 432 145 l 1
 504 145 l 1
 504 0 l 1
 359 0 l 1
 359 73 l 1
142 580 m 1
 142 725 l 1
 214 725 l 1
 214 580 l 1
 142 580 l 1
142 290 m 1
 214 290 l 1
 214 0 l 1
 69 0 l 1
 69 73 l 1
 142 73 l 1
 142 290 l 1
287 290 m 1
 359 290 l 1
 359 218 l 1
 287 218 l 1
 287 290 l 1
432 653 m 1
 432 580 l 1
 359 580 l 1
 359 653 l 1
 432 653 l 1
359 580 m 1
 359 508 l 1
 287 508 l 1
 287 580 l 1
 359 580 l 1
287 508 m 1
 287 435 l 1
 214 435 l 1
 214 508 l 1
 287 508 l 1
214 435 m 1
 214 363 l 1
 142 363 l 1
 142 435 l 1
 214 435 l 1
432 145 m 1
 359 145 l 1
 359 218 l 1
 432 218 l 1
 432 145 l 1
EndSplineSet
EndChar
StartChar: L
Encoding: 76 76 11
Width: 593
Flags: HW
LayerCount: 2
Fore
SplineSet
141 725 m 1
 214 725 l 1
 214 145 l 1
 141 145 l 1
 141 725 l 1
69 0 m 1
 69 73 l 1
 432 73 l 1
 432 145 l 1
 504 145 l 1
 504 0 l 1
 69 0 l 1
EndSplineSet
EndChar
StartChar: M
Encoding: 77 77 12
Width: 594
Flags: HW
LayerCount: 2
Fore
SplineSet
141 725 m 1
 214 725 l 1
 214 580 l 1
 141 580 l 1
 141 725 l 1
359 73 m 1
 431 73 l 1
 431 725 l 1
 504 725 l 1
 504 0 l 1
 359 0 l 1
 359 73 l 1
286 435 m 1
 359 435 l 1
 359 363 l 1
 286 363 l 1
 286 435 l 1
286 363 m 1
 286 290 l 1
 214 290 l 1
 214 0 l 1
 69 0 l 1
 69 73 l 1
 141 73 l 1
 141 435 l 1
 214 435 l 1
 214 363 l 1
 286 363 l 1
214 580 m 1
 286 580 l 1
 286 508 l 1
 214 508 l 1
 214 580 l 1
EndSplineSet
EndChar
StartChar: N
Encoding: 78 78 13
Width: 594
Flags: HW
LayerCount: 2
Fore
SplineSet
141 725 m 1
 214 725 l 1
 214 580 l 1
 141 580 l 1
 141 725 l 1
359 73 m 1
 432 73 l 1
 432 725 l 1
 504 725 l 1
 504 0 l 1
 359 0 l 1
 359 73 l 1
359 218 m 1
 359 145 l 1
 287 145 l 1
 287 218 l 1
 359 218 l 1
214 290 m 1
 287 290 l 1
 287 218 l 1
 214 218 l 1
 214 0 l 1
 69 0 l 1
 69 73 l 1
 141 73 l 1
 141 435 l 1
 214 435 l 1
 214 290 l 1
214 580 m 1
 287 580 l 1
 287 508 l 1
 359 508 l 1
 359 363 l 1
 287 363 l 1
 287 508 l 1
 214 508 l 1
 214 580 l 1
EndSplineSet
EndChar
StartChar: O
Encoding: 79 79 14
Width: 568
Flags: HW
LayerCount: 2
Fore
SplineSet
510 580 m 1
 510 145 l 1
 437 145 l 1
 437 73 l 1
 365 73 l 1
 365 0 l 1
 147 0 l 1
 147 73 l 1
 365 73 l 1
 365 145 l 1
 437 145 l 1
 437 580 l 1
 510 580 l 1
365 653 m 1
 365 580 l 1
 220 580 l 1
 220 218 l 1
 147 218 l 1
 147 580 l 1
 220 580 l 1
 220 653 l 1
 365 653 l 1
147 73 m 1
 75 73 l 1
 75 145 l 1
 147 145 l 1
 147 73 l 1
EndSplineSet
EndChar
StartChar: P
Encoding: 80 80 15
Width: 553
Flags: HW
LayerCount: 2
Fore
SplineSet
142 73 m 1
 142 363 l 1
 215 363 l 1
 360 363 l 1
 360 290 l 1
 215 290 l 1
 215 0 l 1
 69 0 l 1
 69 73 l 1
 142 73 l 1
505 604 m 1
 505 435 l 1
 432 435 l 1
 432 363 l 1
 360 363 l 1
 360 435 l 1
 432 435 l 1
 432 604 l 1
 505 604 l 1
215 435 m 1
 142 435 l 1
 142 653 l 1
 360 653 l 1
 360 580 l 1
 215 580 l 1
 215 435 l 1
EndSplineSet
EndChar
StartChar: Q
Encoding: 81 81 16
Width: 549
Flags: HW
LayerCount: 2
Fore
SplineSet
459 580 m 1
 459 218 l 1
 387 218 l 1
 387 145 l 1
 314 145 l 1
 314 218 l 1
 387 218 l 1
 387 580 l 1
 459 580 l 1
314 653 m 1
 314 580 l 1
 169 580 l 1
 169 218 l 1
 97 218 l 1
 97 580 l 1
 169 580 l 1
 169 653 l 1
 314 653 l 1
314 0 m 1
 314 73 l 1
 387 73 l 1
 387 145 l 1
 459 145 l 1
 459 0 l 1
 314 0 l 1
97 73 m 1
 97 145 l 1
 169 145 l 1
 169 73 l 1
 242 73 l 1
 242 0 l 1
 169 0 l 1
 169 73 l 1
 97 73 l 1
314 218 m 1
 242 218 l 1
 242 290 l 1
 314 290 l 1
 314 218 l 1
EndSplineSet
EndChar
StartChar: R
Encoding: 82 82 17
Width: 594
Flags: HW
LayerCount: 2
Fore
SplineSet
214 0 m 1
 69 0 l 1
 69 73 l 1
 141 73 l 1
 141 290 l 1
 214 290 l 1
 214 0 l 1
504 604 m 1
 504 435 l 1
 431 435 l 1
 431 363 l 1
 359 363 l 1
 359 435 l 1
 431 435 l 1
 431 604 l 1
 504 604 l 1
214 435 m 1
 141 435 l 1
 141 653 l 1
 359 653 l 1
 359 580 l 1
 214 580 l 1
 214 435 l 1
504 0 m 1
 359 0 l 1
 359 73 l 1
 431 73 l 1
 431 145 l 1
 504 145 l 1
 504 0 l 1
359 363 m 1
 359 290 l 1
 286 290 l 1
 286 363 l 1
 359 363 l 1
431 145 m 1
 359 145 l 1
 359 218 l 1
 431 218 l 1
 431 145 l 1
EndSplineSet
EndChar
StartChar: S
Encoding: 83 83 18
Width: 575
Flags: HW
LayerCount: 2
Fore
SplineSet
518 508 m 1
 373 508 l 1
 373 580 l 1
 446 580 l 1
 446 653 l 1
 518 653 l 1
 518 508 l 1
156 653 m 1
 373 653 l 1
 373 580 l 1
 228 580 l 1
 228 508 l 1
 156 508 l 1
 156 653 l 1
446 290 m 1
 518 290 l 1
 518 145 l 1
 446 145 l 1
 446 290 l 1
228 218 m 1
 228 145 l 1
 156 145 l 1
 156 218 l 1
 228 218 l 1
373 290 m 1
 373 218 l 1
 301 218 l 1
 301 290 l 1
 228 290 l 1
 228 363 l 1
 83 363 l 1
 83 435 l 1
 228 435 l 1
 228 363 l 1
 301 363 l 1
 301 290 l 1
 373 290 l 1
446 145 m 1
 446 73 l 1
 373 73 l 1
 373 145 l 1
 446 145 l 1
373 73 m 1
 373 0 l 1
 83 0 l 1
 83 73 l 1
 373 73 l 1
EndSplineSet
EndChar
StartChar: T
Encoding: 84 84 19
Width: 547
Flags: HW
LayerCount: 2
Fore
SplineSet
66 653 m 1
 211 653 l 1
 211 580 l 1
 66 580 l 1
 66 653 l 1
211 73 m 1
 283 73 l 1
 283 653 l 1
 428 653 l 1
 428 725 l 1
 501 725 l 1
 501 580 l 1
 356 580 l 1
 356 0 l 1
 211 0 l 1
 211 73 l 1
EndSplineSet
EndChar
StartChar: U
Encoding: 85 85 20
Width: 570
Flags: HW
LayerCount: 2
Fore
SplineSet
220 725 m 1
 220 218 l 1
 147 218 l 1
 147 725 l 1
 220 725 l 1
510 725 m 1
 510 145 l 1
 437 145 l 1
 437 73 l 1
 365 73 l 1
 365 0 l 1
 147 0 l 1
 147 73 l 1
 365 73 l 1
 365 145 l 1
 437 145 l 1
 437 725 l 1
 510 725 l 1
147 73 m 1
 75 73 l 1
 75 145 l 1
 147 145 l 1
 147 73 l 1
EndSplineSet
EndChar
StartChar: V
Encoding: 86 86 21
Width: 553
Flags: HW
LayerCount: 2
Fore
SplineSet
505 725 m 1
 505 435 l 1
 432 435 l 1
 432 725 l 1
 505 725 l 1
214 725 m 1
 214 145 l 1
 142 145 l 1
 142 725 l 1
 214 725 l 1
287 73 m 1
 287 218 l 1
 359 218 l 1
 359 73 l 1
 287 73 l 1
287 73 m 1
 287 0 l 1
 69 0 l 1
 69 73 l 1
 287 73 l 1
359 218 m 1
 359 435 l 1
 432 435 l 1
 432 218 l 1
 359 218 l 1
EndSplineSet
EndChar
StartChar: W
Encoding: 87 87 22
Width: 594
Flags: HW
LayerCount: 2
Fore
SplineSet
141 725 m 1
 214 725 l 1
 214 363 l 1
 141 363 l 1
 141 725 l 1
359 73 m 1
 431 73 l 1
 431 725 l 1
 504 725 l 1
 504 0 l 1
 359 0 l 1
 359 73 l 1
286 435 m 1
 359 435 l 1
 359 363 l 1
 286 363 l 1
 286 435 l 1
214 290 m 1
 286 290 l 1
 286 218 l 1
 214 218 l 1
 214 290 l 1
69 73 m 1
 141 73 l 1
 141 218 l 1
 214 218 l 1
 214 0 l 1
 69 0 l 1
 69 73 l 1
286 218 m 1
 359 218 l 1
 359 145 l 1
 286 145 l 1
 286 218 l 1
EndSplineSet
EndChar
StartChar: X
Encoding: 88 88 23
Width: 593
Flags: HW
LayerCount: 2
Fore
SplineSet
359 73 m 1
 431 73 l 1
 431 218 l 1
 504 218 l 1
 504 0 l 1
 359 0 l 1
 359 73 l 1
214 290 m 1
 286 290 l 1
 286 218 l 1
 214 218 l 1
 214 290 l 1
69 73 m 1
 141 73 l 1
 141 218 l 1
 214 218 l 1
 214 0 l 1
 69 0 l 1
 69 73 l 1
141 725 m 1
 214 725 l 1
 214 580 l 1
 286 580 l 1
 286 508 l 1
 214 508 l 1
 214 580 l 1
 141 580 l 1
 141 725 l 1
431 725 m 1
 504 725 l 1
 504 580 l 1
 431 580 l 1
 431 435 l 1
 359 435 l 1
 359 363 l 1
 286 363 l 1
 286 435 l 1
 359 435 l 1
 359 580 l 1
 431 580 l 1
 431 725 l 1
431 218 m 1
 359 218 l 1
 359 363 l 1
 431 363 l 1
 431 218 l 1
EndSplineSet
EndChar
StartChar: Y
Encoding: 89 89 24
Width: 481
Flags: HW
LayerCount: 2
Fore
SplineSet
144 73 m 1
 216 73 l 1
 216 290 l 1
 289 290 l 1
 289 0 l 1
 144 0 l 1
 144 73 l 1
71 725 m 1
 144 725 l 1
 144 508 l 1
 216 508 l 1
 216 363 l 1
 144 363 l 1
 144 508 l 1
 71 508 l 1
 71 725 l 1
361 725 m 1
 434 725 l 1
 434 508 l 1
 361 508 l 1
 361 363 l 1
 289 363 l 1
 289 508 l 1
 361 508 l 1
 361 725 l 1
EndSplineSet
EndChar
StartChar: Z
Encoding: 90 90 25
Width: 610
Flags: HW
LayerCount: 2
Fore
SplineSet
85 653 m 1
 302 653 l 1
 302 580 l 1
 85 580 l 1
 85 653 l 1
520 725 m 1
 520 508 l 1
 375 508 l 1
 375 580 l 1
 448 580 l 1
 448 725 l 1
 520 725 l 1
520 145 m 1
 520 0 l 1
 85 0 l 1
 85 73 l 1
 448 73 l 1
 448 145 l 1
 520 145 l 1
375 508 m 1
 375 363 l 1
 302 363 l 1
 302 508 l 1
 375 508 l 1
302 363 m 1
 302 290 l 1
 230 290 l 1
 230 363 l 1
 302 363 l 1
230 290 m 1
 230 145 l 1
 157 145 l 1
 157 290 l 1
 230 290 l 1
EndSplineSet
EndChar
StartChar: a
Encoding: 97 97 36
Width: 545
Flags: HW
LayerCount: 2
Fore
SplineSet
238 363 m 1
 238 290 l 1
 165 290 l 1
 165 145 l 1
 93 145 l 1
 93 363 l 1
 238 363 l 1
310 145 m 1
 310 290 l 1
 383 290 l 1
 383 145 l 1
 455 145 l 1
 455 0 l 1
 93 0 l 1
 93 73 l 1
 383 73 l 1
 383 145 l 1
 310 145 l 1
EndSplineSet
EndChar
StartChar: b
Encoding: 98 98 37
Width: 482
Flags: HW
LayerCount: 2
Fore
SplineSet
286 73 m 1
 286 145 l 1
 359 145 l 1
 359 0 l 1
 69 0 l 1
 69 73 l 1
 286 73 l 1
286 363 m 1
 286 290 l 1
 214 290 l 1
 214 145 l 1
 141 145 l 1
 141 363 l 1
 286 363 l 1
141 435 m 1
 141 725 l 1
 214 725 l 1
 214 435 l 1
 141 435 l 1
359 145 m 1
 359 290 l 1
 431 290 l 1
 431 145 l 1
 359 145 l 1
EndSplineSet
EndChar
StartChar: c
Encoding: 99 99 38
Width: 523
Flags: HW
LayerCount: 2
Fore
SplineSet
216 290 m 5
 216 145 l 5
 143 145 l 5
 143 363 l 5
 361 363 l 5
 361 435 l 5
 433 435 l 5
 433 290 l 5
 216 290 l 5
361 73 m 5
 361 145 l 5
 433 145 l 5
 433 0 l 5
 71 0 l 5
 71 73 l 5
 361 73 l 5
EndSplineSet
EndChar
StartChar: d
Encoding: 100 100 39
Width: 471
Flags: HW
LayerCount: 2
Fore
SplineSet
93 73 m 5
 383 73 l 5
 383 0 l 5
 93 0 l 5
 93 73 l 5
310 145 m 5
 310 725 l 5
 383 725 l 5
 383 145 l 5
 310 145 l 5
238 363 m 5
 238 290 l 5
 165 290 l 5
 165 145 l 5
 93 145 l 5
 93 363 l 5
 238 363 l 5
EndSplineSet
EndChar
StartChar: e
Encoding: 101 101 40
Width: 525
Flags: HW
LayerCount: 2
Fore
SplineSet
144 290 m 1
 144 363 l 1
 289 363 l 1
 289 290 l 1
 144 290 l 1
144 145 m 1
 144 218 l 1
 362 218 l 1
 362 145 l 1
 144 145 l 1
434 363 m 1
 434 218 l 1
 362 218 l 1
 362 363 l 1
 434 363 l 1
434 145 m 1
 434 0 l 1
 72 0 l 1
 72 73 l 1
 362 73 l 1
 362 145 l 1
 434 145 l 1
EndSplineSet
EndChar
StartChar: f
Encoding: 102 102 41
Width: 414
Flags: HMW
HStem: 0 73<69.5 142.5> 290 145<287.5 360.5> 290 73<215.5 287.5> 435 21G<142.5 215.5> 580 145<287.5 360.5> 580 73<215.5 287.5>
VStem: 69.5 146<0 73> 142.5 73<73 290 435 580> 287.5 73<363 435 653 725>
LayerCount: 2
Fore
SplineSet
287 363 m 5
 287 435 l 5
 361 435 l 5
 361 290 l 5
 215 290 l 5
 215 0 l 5
 69 0 l 5
 69 73 l 5
 143 73 l 5
 143 363 l 5
 287 363 l 5
287 725 m 5
 361 725 l 5
 361 580 l 5
 215 580 l 5
 215 435 l 5
 143 435 l 5
 143 653 l 5
 287 653 l 5
 287 725 l 5
EndSplineSet
EndChar
StartChar: g
Encoding: 103 103 42
Width: 529
Flags: HW
LayerCount: 2
Fore
SplineSet
368 290 m 1
 441 290 l 1
 438 -60 l 1
 365 -60 l 1
 368 290 l 1
223 218 m 1
 151 218 l 1
 151 363 l 1
 296 363 l 1
 296 290 l 1
 223 290 l 1
 223 218 l 1
296 73 m 1
 296 0 l 1
 151 0 l 1
 151 73 l 1
 296 73 l 1
365 -60 m 1
 365 -133 l 1
 293 -133 l 1
 293 -60 l 1
 365 -60 l 1
293 -133 m 1
 293 -205 l 1
 148 -205 l 1
 148 -133 l 1
 293 -133 l 1
148 -133 m 1
 75 -133 l 1
 75 -60 l 1
 148 -60 l 1
 148 -133 l 1
151 73 m 1
 78 73 l 1
 78 145 l 1
 151 145 l 1
 151 73 l 1
EndSplineSet
EndChar
StartChar: h
Encoding: 104 104 43
Width: 520
Flags: HW
LayerCount: 2
Fore
SplineSet
141 435 m 1
 141 725 l 1
 214 725 l 1
 214 435 l 1
 141 435 l 1
359 290 m 1
 431 290 l 1
 431 0 l 1
 286 0 l 1
 286 73 l 1
 359 73 l 1
 359 290 l 1
141 363 m 1
 286 363 l 1
 286 290 l 1
 214 290 l 1
 214 0 l 1
 69 0 l 1
 69 73 l 1
 141 73 l 1
 141 363 l 1
EndSplineSet
EndChar
StartChar: i
Encoding: 105 105 44
Width: 320
Flags: HW
LayerCount: 2
Fore
SplineSet
157 435 m 1
 229 435 l 1
 229 0 l 1
 84 0 l 1
 84 73 l 1
 157 73 l 1
 157 435 l 1
157 653 m 1
 229 653 l 1
 229 508 l 1
 84 508 l 1
 84 580 l 1
 157 580 l 1
 157 653 l 1
EndSplineSet
EndChar
StartChar: j
Encoding: 106 106 45
Width: 492
Flags: HW
LayerCount: 2
Fore
SplineSet
329 595 m 1
 401 595 l 1
 401 450 l 1
 256 450 l 1
 256 522 l 1
 329 522 l 1
 329 595 l 1
329 -58 m 1
 329 377 l 1
 401 377 l 1
 401 -58 l 1
 329 -58 l 1
329 -58 m 1
 329 -130 l 1
 256 -130 l 1
 256 -58 l 1
 329 -58 l 1
256 -130 m 1
 256 -203 l 1
 111 -203 l 1
 111 -130 l 1
 256 -130 l 1
111 -130 m 1
 39 -130 l 1
 39 -58 l 1
 111 -58 l 1
 111 -130 l 1
EndSplineSet
EndChar
StartChar: k
Encoding: 107 107 46
Width: 520
Flags: HW
LayerCount: 2
Fore
SplineSet
142 363 m 1
 142 725 l 1
 214 725 l 1
 214 363 l 1
 142 363 l 1
287 73 m 1
 359 73 l 1
 359 145 l 1
 432 145 l 1
 432 0 l 1
 287 0 l 1
 287 73 l 1
69 73 m 1
 142 73 l 1
 142 145 l 1
 214 145 l 1
 214 0 l 1
 69 0 l 1
 69 73 l 1
214 290 m 1
 287 290 l 1
 287 363 l 1
 359 363 l 1
 359 435 l 1
 432 435 l 1
 432 290 l 1
 359 290 l 1
 359 145 l 1
 287 145 l 1
 287 218 l 1
 214 218 l 1
 214 290 l 1
EndSplineSet
EndChar
StartChar: l
Encoding: 108 108 47
Width: 304
Flags: HW
LayerCount: 2
Fore
SplineSet
142 725 m 5
 214 725 l 5
 214 0 l 5
 69 0 l 5
 69 73 l 5
 142 73 l 5
 142 725 l 5
EndSplineSet
EndChar
StartChar: m
Encoding: 109 109 48
Width: 596
Flags: HW
LayerCount: 2
Fore
SplineSet
289 218 m 5
 289 290 l 5
 361 290 l 5
 361 145 l 5
 216 145 l 5
 216 0 l 5
 71 0 l 5
 71 73 l 5
 144 73 l 5
 144 290 l 5
 216 290 l 5
 216 218 l 5
 289 218 l 5
361 0 m 5
 361 73 l 5
 434 73 l 5
 434 435 l 5
 506 435 l 5
 506 0 l 5
 361 0 l 5
EndSplineSet
EndChar
StartChar: n
Encoding: 110 110 49
Width: 522
Flags: HW
LayerCount: 2
Fore
SplineSet
287 0 m 5
 287 73 l 5
 360 73 l 5
 360 435 l 5
 432 435 l 5
 432 0 l 5
 287 0 l 5
70 0 m 5
 70 73 l 5
 142 73 l 5
 142 363 l 5
 215 363 l 5
 215 0 l 5
 70 0 l 5
EndSplineSet
EndChar
StartChar: o
Encoding: 111 111 50
Width: 493
Flags: HW
LayerCount: 2
Fore
SplineSet
369 290 m 1
 441 290 l 1
 441 145 l 1
 369 145 l 1
 369 290 l 1
296 363 m 1
 296 290 l 1
 224 290 l 1
 224 218 l 1
 151 218 l 1
 151 363 l 1
 296 363 l 1
79 145 m 1
 151 145 l 1
 151 73 l 1
 296 73 l 1
 296 145 l 1
 369 145 l 1
 369 73 l 1
 296 73 l 1
 296 0 l 1
 151 0 l 1
 151 73 l 1
 79 73 l 1
 79 145 l 1
EndSplineSet
EndChar
StartChar: p
Encoding: 112 112 51
Width: 453
Flags: HW
LayerCount: 2
Fore
SplineSet
330 290 m 1
 402 290 l 1
 402 145 l 1
 330 145 l 1
 330 290 l 1
257 363 m 1
 257 290 l 1
 185 290 l 1
 185 145 l 1
 112 145 l 1
 112 363 l 1
 257 363 l 1
330 145 m 1
 330 73 l 1
 257 73 l 1
 257 145 l 1
 330 145 l 1
257 73 m 1
 257 0 l 1
 185 0 l 1
 185 -204 l 1
 40 -204 l 1
 40 -132 l 1
 112 -132 l 1
 112 73 l 1
 257 73 l 1
EndSplineSet
EndChar
StartChar: q
Encoding: 113 113 52
Width: 534
Flags: HW
LayerCount: 2
Fore
SplineSet
296 363 m 1
 296 290 l 1
 223 290 l 1
 223 218 l 1
 150 218 l 1
 150 363 l 1
 296 363 l 1
296 -132 m 1
 368 -132 l 1
 368 435 l 1
 441 435 l 1
 441 -204 l 1
 296 -204 l 1
 296 -132 l 1
296 73 m 1
 296 0 l 1
 150 0 l 1
 150 73 l 1
 296 73 l 1
150 73 m 1
 78 73 l 1
 78 145 l 1
 150 145 l 1
 150 73 l 1
EndSplineSet
EndChar
StartChar: r
Encoding: 114 114 53
Width: 482
Flags: HW
LayerCount: 2
Fore
SplineSet
142 290 m 1
 142 435 l 1
 215 435 l 1
 215 290 l 1
 142 290 l 1
142 218 m 1
 215 218 l 1
 287 218 l 1
 287 145 l 1
 215 145 l 1
 215 0 l 1
 70 0 l 1
 70 73 l 1
 142 73 l 1
 142 218 l 1
360 435 m 1
 432 435 l 1
 432 218 l 1
 287 218 l 1
 287 290 l 1
 360 290 l 1
 360 435 l 1
EndSplineSet
EndChar
StartChar: s
Encoding: 115 115 54
Width: 566
Flags: HW
LayerCount: 2
Fore
SplineSet
79 145 m 1
 152 145 l 1
 152 73 l 1
 369 73 l 1
 369 145 l 1
 442 145 l 1
 442 73 l 1
 369 73 l 1
 369 0 l 1
 152 0 l 1
 152 73 l 1
 79 73 l 1
 79 145 l 1
224 218 m 1
 297 218 l 1
 297 145 l 1
 224 145 l 1
 224 218 l 1
369 218 m 1
 369 290 l 1
 297 290 l 1
 297 363 l 1
 224 363 l 1
 224 435 l 1
 369 435 l 1
 369 363 l 1
 442 363 l 1
 442 218 l 1
 514 218 l 1
 514 145 l 1
 442 145 l 1
 442 218 l 1
 369 218 l 1
442 435 m 1
 514 435 l 1
 514 363 l 1
 442 363 l 1
 442 435 l 1
EndSplineSet
EndChar
StartChar: t
Encoding: 116 116 55
Width: 456
Flags: HW
LayerCount: 2
Fore
SplineSet
222 363 m 1
 222 508 l 1
 295 508 l 1
 295 363 l 1
 222 363 l 1
222 145 m 1
 222 290 l 1
 295 290 l 1
 295 363 l 1
 367 363 l 1
 367 218 l 1
 295 218 l 1
 295 145 l 1
 367 145 l 1
 367 0 l 1
 150 0 l 1
 150 73 l 1
 295 73 l 1
 295 145 l 1
 222 145 l 1
77 218 m 1
 77 290 l 1
 150 290 l 1
 150 218 l 1
 77 218 l 1
EndSplineSet
EndChar
StartChar: u
Encoding: 117 117 56
Width: 496
Flags: HW
LayerCount: 2
Fore
SplineSet
151 218 m 1
 151 435 l 1
 223 435 l 1
 223 218 l 1
 151 218 l 1
368 145 m 1
 368 435 l 1
 441 435 l 1
 441 145 l 1
 368 145 l 1
368 145 m 1
 368 73 l 1
 296 73 l 1
 296 145 l 1
 368 145 l 1
296 73 m 1
 296 0 l 1
 151 0 l 1
 151 73 l 1
 296 73 l 1
151 73 m 1
 78 73 l 1
 78 145 l 1
 151 145 l 1
 151 73 l 1
EndSplineSet
EndChar
StartChar: v
Encoding: 118 118 57
Width: 483
Flags: HW
LayerCount: 2
Fore
SplineSet
215 435 m 1
 215 290 l 1
 143 290 l 1
 143 435 l 1
 215 435 l 1
143 73 m 1
 143 0 l 1
 70 0 l 1
 70 73 l 1
 143 73 l 1
143 73 m 1
 143 145 l 1
 215 145 l 1
 215 73 l 1
 143 73 l 1
215 145 m 1
 215 218 l 1
 288 218 l 1
 288 145 l 1
 215 145 l 1
288 218 m 1
 288 290 l 1
 360 290 l 1
 360 435 l 1
 433 435 l 1
 433 218 l 1
 288 218 l 1
EndSplineSet
EndChar
StartChar: w
Encoding: 119 119 58
Width: 596
Flags: HW
LayerCount: 2
Fore
SplineSet
144 435 m 1
 216 435 l 1
 216 290 l 1
 144 290 l 1
 144 435 l 1
289 363 m 1
 361 363 l 1
 361 290 l 1
 289 290 l 1
 289 363 l 1
361 73 m 1
 434 73 l 1
 434 435 l 1
 506 435 l 1
 506 0 l 1
 361 0 l 1
 361 73 l 1
216 218 m 1
 289 218 l 1
 289 145 l 1
 216 145 l 1
 216 73 l 1
 144 73 l 1
 144 145 l 1
 216 145 l 1
 216 218 l 1
144 73 m 1
 144 0 l 1
 71 0 l 1
 71 73 l 1
 144 73 l 1
EndSplineSet
EndChar
StartChar: x
Encoding: 120 120 59
Width: 613
Flags: HW
LayerCount: 2
Fore
SplineSet
451 435 m 1
 523 435 l 1
 523 363 l 1
 451 363 l 1
 451 435 l 1
306 145 m 1
 378 145 l 1
 378 73 l 1
 306 73 l 1
 306 145 l 1
523 0 m 1
 378 0 l 1
 378 73 l 1
 451 73 l 1
 451 145 l 1
 523 145 l 1
 523 0 l 1
233 0 m 1
 88 0 l 1
 88 73 l 1
 161 73 l 1
 161 145 l 1
 233 145 l 1
 233 0 l 1
88 363 m 1
 161 363 l 1
 161 290 l 1
 88 290 l 1
 88 363 l 1
451 363 m 1
 451 290 l 1
 378 290 l 1
 378 363 l 1
 451 363 l 1
378 290 m 1
 378 218 l 1
 306 218 l 1
 306 290 l 1
 378 290 l 1
161 290 m 1
 233 290 l 1
 233 218 l 1
 161 218 l 1
 161 290 l 1
EndSplineSet
EndChar
StartChar: y
Encoding: 121 121 60
Width: 477
Flags: HW
LayerCount: 2
Fore
SplineSet
184 -205 m 5
 39 -205 l 5
 39 -133 l 5
 111 -133 l 5
 111 0 l 5
 184 0 l 5
 184 -205 l 5
184 145 m 5
 111 145 l 5
 111 358 l 5
 184 358 l 5
 184 145 l 5
184 0 m 5
 184 73 l 5
 256 73 l 5
 256 0 l 5
 184 0 l 5
256 73 m 5
 256 145 l 5
 329 145 l 5
 329 358 l 5
 401 358 l 5
 401 73 l 5
 256 73 l 5
EndSplineSet
EndChar
StartChar: z
Encoding: 122 122 61
Width: 538
Flags: HW
LayerCount: 2
Fore
SplineSet
448 0 m 5
 85 0 l 5
 85 73 l 5
 375 73 l 5
 375 145 l 5
 448 145 l 5
 448 0 l 5
85 435 m 5
 230 435 l 5
 230 363 l 5
 85 363 l 5
 85 435 l 5
303 290 m 5
 303 363 l 5
 375 363 l 5
 375 508 l 5
 448 508 l 5
 448 290 l 5
 303 290 l 5
303 290 m 5
 303 218 l 5
 230 218 l 5
 230 290 l 5
 303 290 l 5
230 218 m 5
 230 145 l 5
 158 145 l 5
 158 218 l 5
 230 218 l 5
EndSplineSet
EndChar
